<?xml version="1.0" encoding="UTF-8" standalone="no"?>
<!-- Created with Serif DrawPlus 11, 0, 3, 23 (Feb 25, 14:12:55) (http://www.serif.com) -->

<svg
   version="1.1"
   width="296.05222"
   height="180.04668"
   id="svg1"
   xmlns="http://www.w3.org/2000/svg"
   xmlns:svg="http://www.w3.org/2000/svg">
  <defs
     id="defs1">
    <rect
       x="274.93967"
       y="190.66377"
       width="10.012977"
       height="12.516222"
       id="rect5" />
  </defs>
  <g
     id="dp_group001"
     transform="translate(-162.427,-555.13032)">
    <g
       id="dp_group006">
      <g
         id="dp_group007">
        <g
           id="dp_group008">
          <path
             id="dp_path009"
             fill="#bd0331"
             fill-rule="evenodd"
             d="m 277.741,650.473 -0.176,1.322 -0.354,2.644 7.05,-2.419 -6.165,-4.189 z" />
          <path
             id="dp_path010"
             fill="#bd0331"
             d="m 184.009,649.595 1.588,-0.128 1.586,-0.123 1.584,-0.116 1.584,-0.111 1.582,-0.104 1.584,-0.097 1.582,-0.093 1.581,-0.088 1.58,-0.082 1.581,-0.076 1.579,-0.07 1.579,-0.066 1.577,-0.058 1.577,-0.054 1.578,-0.048 1.574,-0.041 1.575,-0.036 1.575,-0.031 1.574,-0.025 1.572,-0.02 1.572,-0.013 1.572,-0.008 1.571,-0.002 1.572,0.002 1.569,0.009 1.568,0.013 1.568,0.02 1.57,0.026 1.565,0.03 1.567,0.036 1.565,0.042 1.565,0.048 1.564,0.052 1.564,0.058 1.563,0.064 1.563,0.068 1.561,0.075 1.561,0.08 1.56,0.085 1.559,0.092 1.56,0.096 1.559,0.1 1.557,0.107 1.557,0.113 1.556,0.118 1.556,0.122 1.555,0.13 1.556,0.133 1.553,0.139 1.555,0.144 1.552,0.149 1.552,0.156 1.552,0.16 1.552,0.165 1.549,0.171 1.55,0.176 1.55,0.181 1.548,0.187 1.546,0.191 1.13,0.153 0.176,-1.323 -1.138,-0.15 -1.554,-0.194 -1.553,-0.186 -1.553,-0.182 -1.555,-0.176 -1.555,-0.173 -1.554,-0.165 -1.558,-0.16 -1.557,-0.156 -1.557,-0.15 -1.558,-0.144 -1.558,-0.141 -1.559,-0.133 -1.56,-0.13 -1.561,-0.122 -1.562,-0.118 -1.56,-0.113 -1.562,-0.107 -1.564,-0.102 -1.563,-0.096 -1.564,-0.092 -1.565,-0.086 -1.567,-0.08 -1.567,-0.074 -1.565,-0.068 -1.568,-0.064 -1.569,-0.059 -1.57,-0.052 -1.568,-0.048 -1.57,-0.041 -1.572,-0.036 -1.571,-0.031 -1.572,-0.025 -1.573,-0.02 -1.574,-0.014 -1.574,-0.009 -1.575,-0.004 -1.573,0.004 -1.578,0.008 -1.577,0.013 -1.577,0.02 -1.578,0.026 -1.58,0.03 -1.58,0.036 -1.58,0.042 -1.582,0.048 -1.58,0.053 -1.583,0.059 -1.584,0.065 -1.584,0.071 -1.584,0.076 -1.585,0.081 -1.587,0.088 -1.587,0.093 -1.586,0.1 -1.588,0.104 -1.59,0.111 -1.589,0.116 -1.591,0.123 -1.59,0.128 z" />
        </g>
      </g>
      <path
         id="dp_path027"
         fill="none"
         fill-rule="evenodd"
         stroke="#bd0331"
         stroke-width="1.33333"
         d="m 284.261,652.02 c 50.044,7.133 99.166,22.377 147.695,44.204" />
    </g>
    <g
       id="dp_group030">
      <g
         id="dp_group031"
         style="fill:#008000">
        <g
           id="dp_group032"
           style="fill:#008000">
          <path
             id="dp_path033"
             fill="#0603bd"
             fill-rule="evenodd"
             fill-opacity="0.501961"
             d="m 259.741,655.081 -0.194,1.319 -0.39,2.639 7.082,-2.324 -6.108,-4.272 z"
             style="fill:#008000" />
          <path
             id="dp_path034"
             fill="#0603bd"
             fill-opacity="0.501961"
             d="m 183.932,649.597 2.623,0.091 2.616,0.103 2.612,0.113 2.608,0.124 2.605,0.135 2.601,0.144 2.598,0.154 2.594,0.163 2.591,0.175 2.588,0.184 2.584,0.194 2.581,0.204 2.578,0.214 2.573,0.222 2.573,0.232 2.568,0.242 2.566,0.252 2.561,0.26 2.559,0.269 2.557,0.279 2.555,0.288 2.55,0.296 2.547,0.305 2.545,0.315 2.544,0.322 2.54,0.331 2.538,0.34 2.536,0.349 2.53,0.356 0.994,0.148 0.194,-1.32 -0.998,-0.145 -2.539,-0.359 -2.539,-0.349 -2.542,-0.34 -2.546,-0.331 -2.546,-0.325 -2.551,-0.315 -2.552,-0.305 -2.556,-0.296 -2.557,-0.288 -2.563,-0.281 -2.564,-0.27 -2.567,-0.26 -2.57,-0.252 -2.574,-0.241 -2.576,-0.235 -2.578,-0.222 -2.583,-0.214 -2.587,-0.204 -2.589,-0.194 -2.593,-0.184 -2.596,-0.175 -2.6,-0.165 -2.603,-0.155 -2.607,-0.144 -2.61,-0.135 -2.614,-0.124 -2.617,-0.113 -2.621,-0.103 -2.623,-0.093 z"
             style="fill:#008000" />
        </g>
      </g>
      <g
         id="dp_group035"
         style="fill:#008000">
        <g
           id="dp_group036"
           style="fill:#008000">
          <path
             id="dp_path037"
             fill="#0603bd"
             fill-rule="evenodd"
             fill-opacity="0.501961"
             d="m 335.491,652.939 -0.371,1.281 -0.74,2.561 7.329,-1.349 -5.477,-5.055 z"
             style="fill:#008000" />
          <path
             id="dp_path038"
             fill="#0603bd"
             fill-opacity="0.501961"
             d="m 184.084,649.585 1.26,-0.249 1.257,-0.241 1.259,-0.239 1.255,-0.235 1.257,-0.23 1.253,-0.224 1.255,-0.222 1.252,-0.217 1.251,-0.211 1.252,-0.208 1.25,-0.204 1.248,-0.198 1.25,-0.194 1.248,-0.19 1.246,-0.186 1.247,-0.181 1.245,-0.176 1.244,-0.172 1.243,-0.168 1.243,-0.163 1.244,-0.157 1.241,-0.155 1.24,-0.149 1.241,-0.145 1.24,-0.14 1.239,-0.135 1.237,-0.132 1.239,-0.127 1.236,-0.122 1.237,-0.118 1.235,-0.112 1.235,-0.108 1.234,-0.104 1.234,-0.098 1.234,-0.095 1.234,-0.091 1.232,-0.085 1.23,-0.079 1.232,-0.076 1.232,-0.072 1.228,-0.066 1.231,-0.062 1.229,-0.057 1.23,-0.053 1.228,-0.048 1.228,-0.043 1.226,-0.039 1.227,-0.033 1.227,-0.029 1.226,-0.024 1.227,-0.02 1.225,-0.015 1.224,-0.009 1.227,-0.004 h 1.225 l 1.224,0.002 1.224,0.01 1.224,0.013 1.223,0.02 1.224,0.023 1.223,0.029 1.222,0.033 1.222,0.038 1.222,0.044 1.222,0.048 1.221,0.052 1.223,0.057 1.221,0.063 1.22,0.068 1.221,0.072 1.222,0.076 1.22,0.082 1.221,0.087 1.22,0.092 1.22,0.097 1.22,0.102 1.221,0.106 1.22,0.111 1.22,0.117 1.22,0.122 1.22,0.126 1.22,0.131 1.22,0.137 1.22,0.142 1.22,0.146 1.22,0.152 1.22,0.156 1.22,0.162 1.22,0.166 1.22,0.171 1.222,0.177 1.22,0.183 1.22,0.187 1.221,0.192 1.221,0.197 1.22,0.203 1.222,0.205 1.221,0.213 1.221,0.218 1.223,0.222 1.221,0.228 1.222,0.232 1.222,0.239 1.223,0.243 1.223,0.248 1.224,0.253 1.222,0.259 1.224,0.264 1.224,0.269 1.224,0.275 1.226,0.28 1.225,0.282 1.224,0.291 1.225,0.295 1.226,0.301 1.228,0.305 1.226,0.311 1.228,0.316 1.227,0.323 1.228,0.325 1.228,0.333 1.227,0.336 0.989,0.287 0.371,-1.28 -1,-0.289 -1.238,-0.339 -1.233,-0.333 -1.233,-0.328 -1.232,-0.323 -1.234,-0.319 -1.232,-0.31 -1.23,-0.308 -1.231,-0.302 -1.231,-0.297 -1.232,-0.291 -1.23,-0.285 -1.228,-0.28 -1.23,-0.277 -1.229,-0.27 -1.229,-0.264 -1.228,-0.261 -1.23,-0.253 -1.228,-0.251 -1.228,-0.243 -1.228,-0.238 -1.226,-0.235 -1.227,-0.228 -1.228,-0.225 -1.227,-0.218 -1.226,-0.213 -1.227,-0.208 -1.225,-0.203 -1.227,-0.197 -1.227,-0.195 -1.225,-0.186 -1.225,-0.183 -1.227,-0.177 -1.225,-0.174 -1.226,-0.166 -1.225,-0.162 -1.225,-0.158 -1.226,-0.152 -1.225,-0.147 -1.225,-0.141 -1.226,-0.138 -1.225,-0.133 -1.225,-0.127 -1.226,-0.121 -1.225,-0.117 -1.225,-0.114 -1.227,-0.106 -1.225,-0.102 -1.226,-0.097 -1.225,-0.092 -1.227,-0.087 -1.225,-0.082 -1.227,-0.079 -1.226,-0.072 -1.226,-0.068 -1.226,-0.063 -1.228,-0.057 -1.227,-0.052 -1.227,-0.048 -1.228,-0.044 -1.226,-0.037 -1.228,-0.034 -1.228,-0.029 -1.23,-0.023 -1.228,-0.02 -1.229,-0.013 -1.229,-0.009 -1.23,-0.006 h -1.228 l -1.229,0.007 -1.229,0.009 -1.234,0.015 -1.229,0.02 -1.232,0.024 -1.232,0.029 -1.232,0.034 -1.232,0.038 -1.233,0.043 -1.234,0.048 -1.234,0.053 -1.235,0.058 -1.233,0.061 -1.236,0.067 -1.235,0.072 -1.237,0.076 -1.236,0.081 -1.238,0.085 -1.238,0.091 -1.238,0.095 -1.238,0.098 -1.24,0.104 -1.24,0.108 -1.24,0.115 -1.243,0.117 -1.241,0.123 -1.242,0.127 -1.242,0.132 -1.244,0.137 -1.246,0.14 -1.244,0.145 -1.245,0.15 -1.247,0.154 -1.246,0.16 -1.248,0.163 -1.248,0.168 -1.25,0.172 -1.25,0.179 -1.25,0.181 -1.252,0.185 -1.253,0.191 -1.252,0.196 -1.253,0.199 -1.256,0.204 -1.255,0.208 -1.256,0.213 -1.257,0.217 -1.258,0.222 -1.258,0.226 -1.26,0.231 -1.26,0.235 -1.262,0.238 -1.262,0.244 -1.263,0.247 z"
             style="fill:#008000" />
        </g>
      </g>
      <g
         id="dp_group039"
         style="fill:#008000">
        <g
           id="dp_group040"
           style="fill:#008000">
          <path
             id="dp_path041"
             fill="#0603bd"
             fill-rule="evenodd"
             fill-opacity="0.501961"
             d="m 315.569,619.247 -0.282,1.302 -0.566,2.607 7.222,-1.843 -5.807,-4.672 z"
             style="fill:#008000" />
          <path
             id="dp_path042"
             fill="#0603bd"
             fill-opacity="0.501961"
             d="m 184.263,649.523 2.168,-1.126 2.164,-1.109 2.162,-1.096 1.079,-0.541 1.08,-0.54 1.079,-0.534 1.078,-0.532 1.078,-0.526 1.077,-0.522 1.076,-0.52 1.077,-0.514 1.075,-0.512 1.076,-0.507 1.075,-0.501 1.073,-0.5 1.075,-0.494 1.072,-0.489 1.073,-0.485 1.072,-0.482 1.073,-0.476 1.071,-0.473 1.072,-0.467 1.071,-0.462 1.07,-0.458 1.071,-0.454 1.069,-0.448 1.07,-0.443 1.07,-0.44 1.068,-0.435 1.068,-0.428 1.068,-0.424 1.068,-0.42 1.068,-0.413 1.068,-0.408 1.067,-0.404 1.068,-0.399 1.067,-0.393 1.066,-0.387 1.067,-0.382 1.067,-0.378 1.066,-0.372 1.067,-0.365 1.065,-0.36 1.066,-0.355 1.066,-0.349 1.067,-0.343 1.064,-0.337 1.067,-0.332 1.065,-0.325 1.065,-0.32 1.064,-0.314 1.067,-0.308 1.067,-0.301 1.064,-0.296 1.065,-0.291 1.065,-0.282 1.067,-0.276 1.064,-0.272 1.065,-0.264 1.067,-0.258 1.067,-0.252 1.065,-0.245 1.065,-0.237 1.067,-0.234 1.065,-0.224 1.067,-0.218 1.067,-0.212 1.066,-0.204 1.068,-0.199 1.067,-0.191 1.068,-0.185 1.068,-0.177 1.068,-0.17 1.067,-0.164 1.069,-0.154 1.068,-0.15 1.071,-0.142 1.068,-0.134 1.069,-0.128 1.069,-0.118 1.071,-0.114 1.071,-0.105 1.072,-0.096 1.072,-0.091 1.07,-0.082 1.072,-0.075 1.074,-0.065 1.072,-0.059 1.074,-0.052 1.074,-0.044 1.073,-0.036 1.075,-0.027 1.077,-0.02 1.075,-0.012 1.077,-0.001 1.077,0.003 1.078,0.013 1.078,0.021 1.079,0.03 1.08,0.037 1.079,0.047 1.081,0.054 1.08,0.064 1.084,0.071 1.081,0.08 1.084,0.089 1.084,0.096 1.084,0.107 1.086,0.116 1.085,0.123 1.087,0.133 1.088,0.14 1.088,0.151 1.089,0.16 1.089,0.168 1.091,0.178 1.092,0.186 1.092,0.196 1.088,0.205 0.084,0.019 0.28,-1.304 -0.103,-0.022 -1.109,-0.208 -1.103,-0.198 -1.102,-0.188 -1.102,-0.179 -1.1,-0.171 -1.1,-0.16 -1.098,-0.153 -1.099,-0.143 -1.097,-0.133 -1.096,-0.125 -1.096,-0.116 -1.095,-0.107 -1.095,-0.099 -1.094,-0.089 -1.092,-0.08 -1.092,-0.073 -1.091,-0.064 -1.092,-0.055 -1.089,-0.047 -1.091,-0.037 -1.089,-0.029 -1.087,-0.022 -1.088,-0.013 -1.088,-0.005 -1.085,0.004 -1.086,0.012 -1.085,0.02 -1.085,0.026 -1.084,0.036 -1.084,0.044 -1.083,0.052 -1.083,0.059 -1.081,0.068 -1.083,0.075 -1.081,0.082 -1.08,0.091 -1.08,0.099 -1.081,0.105 -1.079,0.113 -1.08,0.122 -1.077,0.128 -1.079,0.136 -1.079,0.142 -1.076,0.15 -1.077,0.157 -1.077,0.164 -1.076,0.172 -1.076,0.18 -1.076,0.185 -1.075,0.194 -1.076,0.198 -1.075,0.207 -1.074,0.212 -1.075,0.221 -1.073,0.227 -1.075,0.233 -1.073,0.24 -1.074,0.248 -1.074,0.252 -1.072,0.26 -1.074,0.267 -1.072,0.272 -1.072,0.279 -1.073,0.285 -1.073,0.291 -1.072,0.298 -1.072,0.304 -1.072,0.308 -1.072,0.316 -1.074,0.323 -1.07,0.328 -1.072,0.332 -1.072,0.34 -1.072,0.345 -1.072,0.352 -1.071,0.355 -1.073,0.363 -1.072,0.368 -1.072,0.374 -1.072,0.378 -1.072,0.385 -1.072,0.389 -1.072,0.396 -1.074,0.399 -1.072,0.407 -1.073,0.41 -1.073,0.416 -1.074,0.42 -1.073,0.427 -1.073,0.431 -1.074,0.437 -1.073,0.44 -1.075,0.445 -1.074,0.451 -1.074,0.455 -1.076,0.46 -1.076,0.465 -1.074,0.469 -1.076,0.474 -1.076,0.478 -1.078,0.484 -1.076,0.486 -1.077,0.492 -1.077,0.496 -1.079,0.5 -1.077,0.504 -1.079,0.509 -1.08,0.512 -1.08,0.517 -1.079,0.52 -1.08,0.524 -1.082,0.53 -1.082,0.532 -1.081,0.536 -1.083,0.54 -1.084,0.544 -2.168,1.098 -2.169,1.112 -2.171,1.126 z"
             style="fill:#008000" />
        </g>
      </g>
      <g
         id="dp_group043">
        <g
           id="dp_group044">
          <path
             id="dp_path045"
             fill="#0603bd"
             fill-rule="evenodd"
             fill-opacity="0.501961"
             d="m 307.437,722.967 1.064,0.804 2.127,1.609 1.363,-7.328 -6.68,3.307 z"
             style="fill:#008000" />
          <path
             id="dp_path046"
             fill="#0603bd"
             fill-opacity="0.501961"
             d="m 183.537,649.449 0.38,0.306 0.379,0.312 0.381,0.317 0.386,0.325 0.388,0.331 0.389,0.336 0.788,0.692 0.796,0.716 0.808,0.741 0.815,0.763 0.826,0.785 0.835,0.807 0.843,0.828 0.852,0.848 0.861,0.867 0.867,0.886 0.878,0.904 0.886,0.922 0.893,0.938 0.9,0.955 0.909,0.972 0.916,0.984 0.924,1 0.931,1.013 0.937,1.027 0.944,1.039 0.951,1.052 1.923,2.134 1.946,2.172 1.97,2.207 1.993,2.236 2.016,2.26 2.036,2.277 2.055,2.292 2.072,2.299 1.042,1.151 1.047,1.15 1.052,1.151 1.053,1.149 1.059,1.148 1.061,1.144 1.066,1.143 1.07,1.137 1.071,1.135 1.075,1.128 1.077,1.123 1.08,1.117 1.083,1.109 1.085,1.103 1.088,1.093 1.089,1.086 1.092,1.076 1.094,1.064 1.094,1.054 1.096,1.043 1.099,1.031 1.099,1.018 1.101,1.003 1.101,0.992 1.102,0.975 0.553,0.482 0.552,0.478 0.551,0.474 0.552,0.471 0.553,0.465 0.552,0.463 0.552,0.456 0.552,0.455 0.552,0.449 0.553,0.443 0.552,0.44 0.555,0.433 0.551,0.431 0.553,0.425 0.553,0.42 0.552,0.415 0.554,0.41 0.552,0.404 0.552,0.399 0.552,0.396 0.552,0.387 0.552,0.384 0.553,0.377 0.551,0.372 0.55,0.365 0.551,0.362 0.552,0.353 0.551,0.348 0.55,0.343 0.551,0.336 0.549,0.329 0.551,0.325 0.549,0.316 0.55,0.311 0.548,0.304 0.55,0.296 0.547,0.291 0.548,0.284 0.547,0.277 0.548,0.269 0.545,0.263 0.547,0.256 0.546,0.248 0.546,0.24 0.544,0.233 0.544,0.227 0.544,0.219 0.544,0.21 0.542,0.203 0.542,0.195 0.542,0.188 0.542,0.178 0.54,0.171 0.541,0.163 0.539,0.154 0.538,0.147 0.538,0.139 0.537,0.129 0.539,0.12 0.534,0.112 0.536,0.103 0.535,0.094 0.533,0.084 0.534,0.076 0.532,0.067 0.532,0.059 0.53,0.048 0.53,0.038 0.53,0.03 0.527,0.018 0.527,0.012 h 0.526 l 0.524,-0.012 0.524,-0.018 0.523,-0.031 0.523,-0.039 0.52,-0.05 0.52,-0.06 0.52,-0.072 0.516,-0.082 0.514,-0.092 0.515,-0.102 0.515,-0.114 0.512,-0.125 0.51,-0.136 0.51,-0.145 0.506,-0.158 0.508,-0.169 0.504,-0.18 0.503,-0.191 0.503,-0.202 0.498,-0.215 0.498,-0.224 0.498,-0.239 0.492,-0.248 0.494,-0.26 0.493,-0.273 0.488,-0.283 0.487,-0.294 0.486,-0.31 0.483,-0.32 0.483,-0.33 0.48,-0.346 0.477,-0.357 0.475,-0.368 0.474,-0.381 0.472,-0.394 0.47,-0.405 0.468,-0.42 0.466,-0.432 0.463,-0.443 0.46,-0.457 0.46,-0.469 0.457,-0.484 0.456,-0.495 0.466,-0.525 0.346,-0.455 -1.064,-0.805 -0.312,0.414 -0.425,0.478 -0.44,0.481 -0.444,0.468 -0.444,0.453 -0.447,0.442 -0.446,0.429 -0.448,0.416 -0.452,0.404 -0.451,0.389 -0.453,0.38 -0.456,0.366 -0.456,0.354 -0.459,0.342 -0.459,0.329 -0.461,0.317 -0.464,0.307 -0.463,0.293 -0.465,0.282 -0.467,0.272 -0.466,0.26 -0.47,0.246 -0.47,0.238 -0.472,0.225 -0.474,0.213 -0.474,0.204 -0.476,0.192 -0.476,0.18 -0.48,0.172 -0.479,0.159 -0.483,0.149 -0.482,0.14 -0.484,0.128 -0.486,0.118 -0.485,0.108 -0.488,0.097 -0.491,0.087 -0.489,0.078 -0.491,0.067 -0.493,0.057 -0.496,0.048 -0.496,0.039 -0.496,0.028 -0.5,0.019 -0.5,0.009 h -0.5 l -0.503,-0.009 -0.505,-0.019 -0.504,-0.027 -0.508,-0.038 -0.507,-0.046 -0.508,-0.056 -0.51,-0.064 -0.512,-0.073 -0.512,-0.081 -0.514,-0.09 -0.514,-0.1 -0.516,-0.106 -0.518,-0.118 -0.518,-0.124 -0.519,-0.133 -0.52,-0.141 -0.523,-0.15 -0.522,-0.157 -0.524,-0.165 -0.523,-0.174 -0.527,-0.182 -0.525,-0.19 -0.529,-0.197 -0.528,-0.205 -0.528,-0.211 -0.531,-0.221 -0.531,-0.228 -0.532,-0.235 -0.533,-0.243 -0.533,-0.248 -0.535,-0.257 -0.535,-0.264 -0.536,-0.272 -0.534,-0.276 -0.539,-0.285 -0.537,-0.291 -0.538,-0.299 -0.541,-0.305 -0.539,-0.311 -0.54,-0.317 -0.541,-0.324 -0.54,-0.331 -0.543,-0.337 -0.542,-0.343 -0.542,-0.348 -0.542,-0.356 -0.546,-0.36 -0.542,-0.366 -0.546,-0.372 -0.544,-0.379 -0.544,-0.384 -0.546,-0.388 -0.544,-0.396 -0.547,-0.399 -0.545,-0.405 -0.547,-0.412 -0.548,-0.415 -0.545,-0.42 -0.548,-0.425 -0.547,-0.431 -0.547,-0.434 -0.548,-0.44 -0.546,-0.444 -0.547,-0.45 -0.549,-0.453 -0.547,-0.457 -0.548,-0.463 -0.547,-0.465 -0.548,-0.472 -0.549,-0.475 -0.545,-0.477 -1.096,-0.97 -1.094,-0.984 -1.093,-0.997 -1.093,-1.011 -1.091,-1.025 -1.091,-1.037 -1.089,-1.05 -1.088,-1.058 -1.087,-1.071 -1.084,-1.08 -1.082,-1.088 -1.08,-1.097 -1.08,-1.107 -1.075,-1.112 -1.075,-1.12 -1.072,-1.125 -1.068,-1.13 -1.065,-1.134 -1.063,-1.14 -1.058,-1.142 -1.056,-1.145 -1.054,-1.147 -1.049,-1.148 -1.044,-1.15 -1.043,-1.148 -2.069,-2.296 -2.052,-2.29 -2.036,-2.277 -2.013,-2.257 -1.994,-2.236 -1.972,-2.21 -1.949,-2.174 -1.923,-2.138 -0.953,-1.052 -0.947,-1.041 -0.94,-1.029 -0.933,-1.016 -0.927,-1.003 -0.918,-0.989 -0.912,-0.975 -0.906,-0.957 -0.896,-0.944 -0.89,-0.927 -0.882,-0.909 -0.874,-0.892 -0.867,-0.872 -0.857,-0.854 -0.851,-0.836 -0.843,-0.812 -0.832,-0.793 -0.825,-0.771 -0.816,-0.749 -0.807,-0.727 -0.798,-0.702 -0.398,-0.342 -0.393,-0.336 -0.391,-0.33 -0.389,-0.323 -0.387,-0.317 -0.382,-0.311 z"
             style="fill:#008000" />
        </g>
      </g>
      <g
         id="dp_group047">
        <g
           id="dp_group048">
          <path
             id="dp_path049"
             fill="#0603bd"
             fill-rule="evenodd"
             fill-opacity="0.501961"
             d="m 297.104,605.611 0.424,1.264 0.847,2.528 5.262,-5.279 -7.381,-1.043 z"
             style="fill:#008000" />
          <path
             id="dp_path050"
             fill="#0603bd"
             fill-opacity="0.501961"
             d="m 184.295,649.504 0.885,-0.523 0.888,-0.518 0.893,-0.515 0.898,-0.511 0.904,-0.506 0.908,-0.504 0.912,-0.499 0.914,-0.496 0.922,-0.492 0.925,-0.489 0.929,-0.486 0.934,-0.481 0.937,-0.477 0.94,-0.475 0.943,-0.469 0.948,-0.467 0.953,-0.465 0.955,-0.46 0.958,-0.458 0.962,-0.453 0.964,-0.451 0.966,-0.446 0.972,-0.444 0.974,-0.442 0.974,-0.436 0.98,-0.434 0.98,-0.431 0.984,-0.428 0.987,-0.424 0.987,-0.421 0.989,-0.419 0.993,-0.416 0.994,-0.411 0.996,-0.41 0.997,-0.406 0.999,-0.405 1,-0.4 1.002,-0.396 1.003,-0.396 1.004,-0.391 2.013,-0.776 2.016,-0.765 2.018,-0.755 2.02,-0.742 2.021,-0.732 2.023,-0.723 2.021,-0.713 2.02,-0.703 2.017,-0.693 2.015,-0.686 2.013,-0.674 2.007,-0.667 2.001,-0.657 1.998,-0.65 1.988,-0.641 1.981,-0.633 1.973,-0.627 1.963,-0.616 1.955,-0.612 1.941,-0.604 3.851,-1.187 3.797,-1.16 3.737,-1.137 3.672,-1.115 3.6,-1.094 3.522,-1.076 3.436,-1.059 1.684,-0.524 1.661,-0.52 1.637,-0.517 1.611,-0.512 1.588,-0.514 1.18,-0.394 -0.424,-1.264 -1.172,0.394 -1.577,0.508 -1.608,0.512 -1.632,0.518 -1.659,0.517 -1.681,0.524 -3.434,1.056 -3.518,1.076 -3.6,1.095 -3.672,1.114 -3.738,1.138 -3.8,1.162 -3.853,1.187 -1.944,0.604 -1.957,0.612 -1.966,0.619 -1.976,0.626 -1.984,0.634 -1.993,0.644 -2,0.649 -2.004,0.66 -2.012,0.667 -2.016,0.677 -2.02,0.685 -2.023,0.696 -2.025,0.706 -2.027,0.713 -2.028,0.725 -2.026,0.735 -2.026,0.745 -2.025,0.758 -2.021,0.765 -2.019,0.779 -1.009,0.393 -1.006,0.396 -1.005,0.399 -1.005,0.402 -1.004,0.406 -1,0.408 -0.999,0.41 -0.999,0.414 -0.996,0.418 -0.994,0.419 -0.992,0.424 -0.99,0.427 -0.989,0.428 -0.985,0.433 -0.983,0.437 -0.98,0.439 -0.979,0.441 -0.974,0.447 -0.972,0.449 -0.97,0.454 -0.966,0.456 -0.964,0.46 -0.96,0.462 -0.956,0.466 -0.954,0.469 -0.95,0.475 -0.946,0.477 -0.942,0.48 -0.939,0.484 -0.935,0.488 -0.93,0.492 -0.927,0.495 -0.923,0.498 -0.917,0.504 -0.913,0.507 -0.91,0.509 -0.905,0.516 -0.899,0.518 -0.896,0.521 -0.888,0.525 z"
             style="fill:#008000" />
        </g>
      </g>
      <g
         id="dp_group051">
        <g
           id="dp_group052">
          <path
             id="dp_path053"
             fill="#0603bd"
             fill-rule="evenodd"
             fill-opacity="0.501961"
             d="m 292.404,705.828 -0.655,-1.161 -1.309,-2.324 -4.172,6.176 7.444,-0.367 z"
             style="fill:#008000" />
          <path
             id="dp_path054"
             fill="#0603bd"
             fill-opacity="0.501961"
             d="m 183.692,648.319 -1.188,0.513 -1.153,0.504 -1.115,0.497 -1.079,0.49 -1.04,0.482 -1.004,0.474 -0.966,0.466 -0.932,0.459 -0.898,0.451 -0.86,0.445 -0.825,0.437 -0.791,0.431 -0.756,0.423 -0.722,0.416 -0.688,0.41 -0.655,0.402 -0.317,0.2 -0.306,0.197 -0.298,0.195 -0.291,0.194 -0.284,0.194 -0.275,0.192 -0.265,0.189 -0.259,0.189 -0.25,0.186 -0.243,0.186 -0.236,0.184 -0.227,0.183 -0.221,0.183 -0.211,0.18 -0.204,0.177 -0.198,0.179 -0.19,0.177 -0.182,0.177 -0.174,0.175 -0.166,0.172 -0.16,0.173 -0.154,0.174 -0.144,0.17 -0.137,0.17 -0.131,0.17 -0.122,0.168 -0.116,0.17 -0.111,0.168 -0.103,0.17 -0.093,0.17 -0.085,0.166 -0.08,0.168 -0.071,0.17 -0.064,0.165 -0.057,0.168 -0.048,0.169 -0.04,0.167 -0.034,0.171 -0.022,0.166 -0.018,0.167 -0.006,0.169 0.002,0.163 0.01,0.165 0.018,0.168 0.03,0.162 0.034,0.156 0.044,0.16 0.054,0.156 0.06,0.153 0.068,0.151 0.076,0.149 0.084,0.144 0.089,0.14 0.096,0.139 0.104,0.136 0.108,0.132 0.117,0.133 0.124,0.127 0.124,0.121 0.134,0.123 0.14,0.121 0.144,0.116 0.15,0.116 0.159,0.115 0.16,0.109 0.168,0.109 0.172,0.107 0.176,0.105 0.184,0.104 0.189,0.103 0.196,0.1 0.199,0.099 0.203,0.096 0.208,0.094 0.214,0.096 0.223,0.094 0.225,0.09 0.231,0.091 0.473,0.175 0.496,0.172 0.518,0.166 0.537,0.162 0.555,0.157 0.576,0.152 0.593,0.148 0.615,0.145 0.632,0.14 0.65,0.136 0.668,0.134 0.69,0.129 0.704,0.125 0.721,0.123 0.74,0.119 0.756,0.114 0.773,0.112 0.79,0.108 0.804,0.106 0.821,0.102 0.837,0.1 0.851,0.096 0.867,0.095 0.881,0.091 0.896,0.088 0.909,0.085 0.923,0.084 0.936,0.08 0.949,0.079 0.963,0.076 0.976,0.073 1.987,0.14 2.032,0.135 2.077,0.125 2.119,0.117 2.158,0.112 2.195,0.106 2.229,0.101 2.262,0.095 2.292,0.092 2.318,0.088 2.344,0.085 4.752,0.163 4.822,0.156 4.873,0.156 4.905,0.158 4.916,0.167 2.458,0.088 2.453,0.091 2.445,0.094 2.436,0.1 2.426,0.106 2.41,0.112 2.395,0.117 2.376,0.124 2.355,0.132 2.33,0.139 2.303,0.148 2.276,0.157 1.127,0.083 1.117,0.084 1.111,0.088 1.1,0.089 1.092,0.093 1.084,0.095 1.072,0.099 1.062,0.1 1.054,0.105 1.042,0.107 1.031,0.11 1.021,0.112 1.008,0.118 0.998,0.12 0.984,0.122 0.973,0.127 0.96,0.131 0.947,0.133 0.932,0.137 0.92,0.14 0.906,0.147 0.892,0.148 0.876,0.153 0.862,0.156 0.845,0.16 0.833,0.166 0.814,0.168 0.798,0.173 0.783,0.177 0.767,0.18 0.746,0.187 0.732,0.191 0.712,0.193 0.694,0.199 0.677,0.204 0.657,0.208 0.638,0.213 0.62,0.217 0.6,0.222 0.289,0.112 0.287,0.114 0.281,0.115 0.277,0.117 0.272,0.116 0.264,0.119 0.26,0.12 0.255,0.12 0.251,0.123 0.245,0.124 0.239,0.124 0.233,0.124 0.225,0.125 0.223,0.129 0.217,0.128 0.211,0.131 0.204,0.131 0.2,0.132 0.193,0.132 0.187,0.133 0.183,0.136 0.176,0.136 0.169,0.137 0.163,0.138 0.156,0.137 0.153,0.14 0.147,0.141 0.138,0.14 0.132,0.143 0.131,0.144 0.12,0.143 0.115,0.144 0.11,0.146 0.103,0.144 0.096,0.147 0.092,0.148 0.085,0.148 0.08,0.149 0.074,0.15 0.068,0.15 0.061,0.151 0.056,0.156 0.052,0.153 0.043,0.155 0.04,0.156 0.032,0.157 0.028,0.159 0.021,0.161 0.016,0.164 0.009,0.164 0.004,0.167 -10e-4,0.168 -0.009,0.171 -0.014,0.172 -0.02,0.174 -0.028,0.179 -0.032,0.18 -0.038,0.18 -0.048,0.185 -0.052,0.19 -0.059,0.186 -0.067,0.192 -0.074,0.196 -0.08,0.196 -0.087,0.199 -0.096,0.203 -0.103,0.205 -0.109,0.207 -0.117,0.209 -0.126,0.215 -0.13,0.213 -0.14,0.217 -0.147,0.222 -0.156,0.22 -0.161,0.224 -0.172,0.226 -0.18,0.231 -0.187,0.232 -0.193,0.233 -0.202,0.236 -0.212,0.239 -0.218,0.241 -0.227,0.243 -0.235,0.247 -0.242,0.248 -0.252,0.25 -0.26,0.252 -0.268,0.255 -0.276,0.256 -0.287,0.26 -0.292,0.263 -0.301,0.262 -0.311,0.267 -0.319,0.269 -0.326,0.271 -0.336,0.272 -0.346,0.276 -0.353,0.277 -0.363,0.28 -0.37,0.283 -0.379,0.283 -0.388,0.286 -0.397,0.29 -0.406,0.29 -0.416,0.294 -0.424,0.297 -0.433,0.297 -0.441,0.3 -0.452,0.303 -0.46,0.305 -0.47,0.307 -0.478,0.309 -0.488,0.314 -0.496,0.313 -1.022,0.636 -1.061,0.644 -1.091,0.652 -0.268,0.149 0.654,1.163 0.281,-0.16 1.112,-0.663 1.069,-0.652 1.032,-0.641 0.504,-0.319 0.494,-0.316 0.484,-0.312 0.477,-0.312 0.465,-0.31 0.458,-0.306 0.449,-0.305 0.439,-0.303 0.432,-0.3 0.421,-0.298 0.413,-0.296 0.406,-0.295 0.396,-0.292 0.386,-0.291 0.379,-0.288 0.371,-0.285 0.361,-0.285 0.353,-0.282 0.344,-0.28 0.338,-0.278 0.326,-0.275 0.322,-0.275 0.312,-0.273 0.302,-0.271 0.295,-0.268 0.287,-0.266 0.278,-0.266 0.271,-0.262 0.263,-0.262 0.256,-0.261 0.245,-0.257 0.24,-0.256 0.229,-0.255 0.223,-0.252 0.217,-0.252 0.207,-0.249 0.2,-0.248 0.191,-0.247 0.185,-0.245 0.177,-0.243 0.17,-0.244 0.16,-0.24 0.156,-0.239 0.146,-0.24 0.139,-0.236 0.131,-0.236 0.122,-0.233 0.116,-0.232 0.11,-0.232 0.102,-0.231 0.094,-0.23 0.085,-0.228 0.08,-0.227 0.072,-0.229 0.063,-0.224 0.056,-0.223 0.049,-0.225 0.04,-0.22 0.033,-0.222 0.026,-0.22 0.018,-0.217 0.01,-0.216 0.004,-0.216 -0.007,-0.215 -0.012,-0.212 -0.021,-0.209 -0.027,-0.209 -0.036,-0.21 -0.043,-0.205 -0.05,-0.204 -0.059,-0.203 -0.065,-0.198 -0.072,-0.196 -0.08,-0.196 -0.087,-0.194 -0.092,-0.189 -0.101,-0.189 -0.107,-0.186 -0.113,-0.182 -0.12,-0.182 -0.127,-0.178 -0.132,-0.176 -0.139,-0.174 -0.146,-0.172 -0.15,-0.168 -0.156,-0.166 -0.165,-0.167 -0.168,-0.16 -0.172,-0.161 -0.18,-0.159 -0.187,-0.156 -0.19,-0.153 -0.198,-0.152 -0.201,-0.15 -0.208,-0.149 -0.212,-0.145 -0.219,-0.146 -0.222,-0.141 -0.23,-0.141 -0.233,-0.139 -0.239,-0.137 -0.244,-0.136 -0.249,-0.135 -0.255,-0.132 -0.258,-0.129 -0.264,-0.131 -0.271,-0.128 -0.273,-0.125 -0.28,-0.124 -0.286,-0.124 -0.288,-0.12 -0.292,-0.12 -0.3,-0.12 -0.305,-0.118 -0.619,-0.229 -0.638,-0.225 -0.659,-0.219 -0.676,-0.213 -0.693,-0.21 -0.712,-0.204 -0.728,-0.198 -0.746,-0.194 -0.762,-0.189 -0.78,-0.185 -0.794,-0.18 -0.812,-0.176 -0.826,-0.171 -0.842,-0.165 -0.856,-0.163 -0.872,-0.159 -0.886,-0.153 -0.9,-0.151 -0.915,-0.146 -0.928,-0.143 -0.94,-0.137 -0.955,-0.136 -0.968,-0.131 -0.978,-0.127 -0.992,-0.125 -1.003,-0.12 -1.013,-0.117 -1.027,-0.115 -1.036,-0.111 -1.048,-0.106 -1.059,-0.106 -1.068,-0.1 -1.077,-0.098 -1.087,-0.098 -1.097,-0.093 -1.105,-0.089 -1.114,-0.088 -1.122,-0.084 -1.13,-0.083 -2.281,-0.157 -2.311,-0.151 -2.336,-0.139 -2.36,-0.132 -2.378,-0.124 -2.4,-0.117 -2.414,-0.112 -2.428,-0.105 -2.441,-0.1 -2.448,-0.095 -2.453,-0.091 -2.46,-0.088 -4.919,-0.166 -4.905,-0.159 -4.874,-0.156 -4.821,-0.156 -4.749,-0.163 -2.342,-0.085 -2.316,-0.088 -2.289,-0.092 -2.259,-0.095 -2.224,-0.101 -2.192,-0.105 -2.153,-0.112 -2.113,-0.118 -2.07,-0.125 -2.026,-0.132 -1.979,-0.14 -0.971,-0.073 -0.957,-0.076 -0.944,-0.079 -0.933,-0.08 -0.918,-0.081 -0.904,-0.086 -0.888,-0.088 -0.876,-0.09 -0.858,-0.092 -0.846,-0.096 -0.829,-0.1 -0.813,-0.1 -0.796,-0.106 -0.782,-0.108 -0.762,-0.109 -0.746,-0.115 -0.729,-0.116 -0.711,-0.12 -0.693,-0.122 -0.673,-0.127 -0.655,-0.131 -0.637,-0.133 -0.616,-0.137 -0.596,-0.14 -0.578,-0.146 -0.554,-0.146 -0.536,-0.152 -0.514,-0.154 -0.49,-0.158 -0.47,-0.162 -0.449,-0.166 -0.212,-0.083 -0.209,-0.085 -0.202,-0.086 -0.196,-0.085 -0.192,-0.089 -0.186,-0.088 -0.18,-0.088 -0.172,-0.09 -0.166,-0.089 -0.16,-0.091 -0.154,-0.092 -0.148,-0.09 -0.142,-0.094 -0.136,-0.093 -0.126,-0.091 -0.122,-0.094 -0.117,-0.095 -0.108,-0.092 -0.101,-0.093 -0.1,-0.098 -0.09,-0.092 -0.08,-0.09 -0.078,-0.095 -0.07,-0.091 -0.064,-0.093 -0.06,-0.095 -0.052,-0.09 -0.046,-0.091 -0.042,-0.089 -0.036,-0.092 -0.029,-0.09 -0.025,-0.09 -0.022,-0.098 -0.016,-0.092 -0.01,-0.09 -0.007,-0.096 v -0.099 l 0.004,-0.097 0.009,-0.103 0.015,-0.105 0.02,-0.104 0.027,-0.111 0.032,-0.111 0.038,-0.114 0.046,-0.12 0.052,-0.122 0.058,-0.122 0.067,-0.13 0.072,-0.129 0.079,-0.131 0.086,-0.136 0.095,-0.137 0.104,-0.141 0.109,-0.144 0.119,-0.146 0.125,-0.149 0.132,-0.149 0.142,-0.152 0.15,-0.156 0.158,-0.159 0.164,-0.159 0.173,-0.161 0.18,-0.163 0.191,-0.166 0.197,-0.17 0.205,-0.169 0.214,-0.172 0.222,-0.173 0.23,-0.176 0.24,-0.178 0.248,-0.181 0.254,-0.181 0.264,-0.184 0.271,-0.186 0.28,-0.186 0.291,-0.19 0.297,-0.192 0.304,-0.192 0.639,-0.393 0.672,-0.4 0.706,-0.408 0.743,-0.415 0.777,-0.422 0.812,-0.432 0.85,-0.438 0.884,-0.445 0.921,-0.453 0.959,-0.462 0.993,-0.47 1.032,-0.478 1.071,-0.484 1.106,-0.494 1.146,-0.502 1.185,-0.51 z"
             style="fill:#008000" />
        </g>
      </g>
    </g>
    <g
       id="dp_group055"
       transform="translate(-25.960895,28.910997)">
      <text
         xml:space="preserve"
         style="font-style:normal;font-variant:normal;font-weight:normal;font-stretch:normal;font-size:14.5031px;font-family:'Linux Libertine';-inkscape-font-specification:'Linux Libertine';fill:#000000;stroke-width:1.2086"
         x="479.07285"
         y="650.54047"
         id="text1"
         transform="scale(0.96603974,1.0351541)"><tspan
           id="tspan1"
           x="479.07285"
           y="650.54047"
           style="font-style:italic;font-variant:normal;font-weight:normal;font-stretch:normal;font-family:'Linux Libertine';-inkscape-font-specification:'Linux Libertine Italic';stroke-width:1.2086">x<tspan
   style="font-style:italic;font-variant:normal;font-weight:normal;font-stretch:normal;font-size:9.42705px;font-family:'Linux Libertine';-inkscape-font-specification:'Linux Libertine Italic';baseline-shift:sub;stroke-width:1.2086"
   id="tspan3">f</tspan>,t<tspan
   style="font-style:italic;font-variant:normal;font-weight:normal;font-stretch:normal;font-size:9.42705px;font-family:'Linux Libertine';-inkscape-font-specification:'Linux Libertine Italic';baseline-shift:sub;stroke-width:1.2086"
   id="tspan2">f</tspan></tspan></text>
      <text
         xml:space="preserve"
         style="font-style:normal;font-variant:normal;font-weight:normal;font-stretch:normal;font-size:14.5031px;font-family:'Linux Libertine';-inkscape-font-specification:'Linux Libertine';fill:#000000;stroke-width:1.2086"
         x="195.31819"
         y="593.53583"
         id="text1-8"
         transform="scale(0.96603974,1.0351541)"><tspan
           id="tspan1-0"
           x="195.31819"
           y="593.53583"
           style="font-style:italic;font-variant:normal;font-weight:normal;font-stretch:normal;font-family:'Linux Libertine';-inkscape-font-specification:'Linux Libertine Italic';stroke-width:1.2086">x<tspan
   style="font-style:italic;font-variant:normal;font-weight:normal;font-stretch:normal;font-size:65%;font-family:'Linux Libertine';-inkscape-font-specification:'Linux Libertine Italic';baseline-shift:sub"
   id="tspan5">i</tspan>,t<tspan
   style="font-style:italic;font-variant:normal;font-weight:normal;font-stretch:normal;font-size:65%;font-family:'Linux Libertine';-inkscape-font-specification:'Linux Libertine Italic';baseline-shift:sub"
   id="tspan4">i</tspan></tspan></text>
      <text
         xml:space="preserve"
         transform="translate(175.20089,526.216)"
         id="text5"
         style="font-style:italic;font-variant:normal;font-weight:normal;font-stretch:normal;font-family:'Linux Libertine';-inkscape-font-specification:'Linux Libertine Italic';white-space:pre;shape-inside:url(#rect5);fill:#000000" />
    </g>
    <path
       id="dp_path071"
       fill="none"
       fill-rule="evenodd"
       stroke="#0603bd"
       stroke-opacity="0.501961"
       stroke-width="1.33333"
       d="m 311.991,718.052 c 37.21,-56.412 69.486,-3.652 119.965,-21.828"
       style="stroke:#008000" />
    <path
       id="dp_path072"
       fill="none"
       fill-rule="evenodd"
       stroke="#0603bd"
       stroke-opacity="0.501961"
       stroke-width="1.33333"
       d="m 286.267,708.519 c -69.092,37.302 137.21,-225.452 145.689,-12.295"
       style="stroke:#008000" />
    <path
       id="dp_path073"
       fill="none"
       fill-rule="evenodd"
       stroke="#0603bd"
       stroke-opacity="0.501961"
       stroke-width="1.33333"
       d="m 266.239,656.715 c 56.118,8.564 110.554,23.072 165.717,39.509"
       style="stroke:#008000" />
    <path
       id="dp_path074"
       fill="none"
       fill-rule="evenodd"
       stroke="#0603bd"
       stroke-opacity="0.501961"
       stroke-width="1.33333"
       d="m 341.709,655.432 c 29.403,8.876 59.254,22.316 90.247,40.792"
       style="stroke:#008000" />
    <path
       id="dp_path075"
       fill="none"
       fill-rule="evenodd"
       stroke="#0603bd"
       stroke-opacity="0.501961"
       stroke-width="1.33333"
       d="m 321.944,621.313 c 34.709,8.418 70.804,31.115 110.012,74.911"
       style="stroke:#008000" />
    <path
       id="dp_path076"
       fill="none"
       fill-rule="evenodd"
       stroke="#0603bd"
       stroke-opacity="0.501961"
       stroke-width="1.33333"
       d="m 303.636,604.124 c 32.431,-11.325 40.792,-21.368 -17.369,-41.739 -87.91,-30.789 118.73,52.059 145.689,133.839"
       style="stroke:#008000" />
  </g>
</svg>
